<svg xmlns="http://www.w3.org/2000/svg" id="Layer_2" data-name="Layer 2" width="205.18" height="33.91" viewBox="0 0 205.18 33.91">
  <defs>
    <style>
      .cls-1 {
        fill: #fff;
      }
    </style>
  </defs>
  <g id="Layer_1-2" data-name="Layer 1">
    <path id="logo" class="cls-1" d="m102.25,33.91H3.67v-.96h101.32c.42-.14.85-.3,1.28-.4.98-.15,1.85-.72,2.39-1.55.39-.79.55-1.67.44-2.55-.12-1.32-1.02-1.87-2.04-2.46-1.04-.65-2.2-1.09-3.41-1.28-1.14-.12-3.05.5-2.45,2.11.11.3.31.37.27.71-.03.3-.25.58-.56.46-.14-.28-.11-.89-.58-.68-.06.03-.14.32-.17.39-.04.13-.03.3-.15.38-.11.07-.25.06-.34-.04-.1-.1-.11-.25-.17-.37-.09-.18-.35-.37-.53-.19-.14.14-.14.46-.18.65-.08.37-.65,1.01-.72.26-.39.29-.33.85-.9.9-.63.05-.68-.73-1.19-1.01-.07-.04-.23.16-.43.36-.24.24-.54.48-.8.31-.44-.28-.15-1.12-.22-1.54-.11-.6-.29-.45-.55-.3-.13.09-.28.13-.43.14-.92-.06.7-1.39-.12-1.8-.15-.06-.32-.07-.49-.04-.25.03-.5.06-.68-.25-.08-.1-.1-.23-.06-.35.06-.1.17-.16.22-.28.04-.1,0-.21-.1-.25-.05-.02-.1-.02-.15,0-.06.02-.1.09-.16.11-.1.03-.21.02-.32-.01-.25-.12-.35-.42-.23-.66,0-.01.01-.02.02-.03.08-.17.21-.25.3-.4.1-.17-.03-.31,0-.5.05-.31.32-.43.42-.69.08-.21,0-.45-.18-.57-.26-.23-.61-.3-.73-.7-.15-.51.28-.96.62-1.26.26-.23-.23-.84-.15-1.2.03-.37.36-.63.73-.6.05,0,.1.02.15.03.38-.72-.66-1.66.37-2.06.16-.05.33-.06.5-.01.21.09.46.02.6-.16.14-.17.06-.41.29-.51.11-.03.22-.02.33.02.07.02.15.04.23.04-.12-.83-1.33-.52-1.43-1.53,0-.29-.11-.57-.32-.76-.22-.27-.41-.28-.13-.59.24-.26.79-.1,1.01-.39.2-.27-.03-.58-.05-.88-.04-.82.64-.88,1.28-.74-.07-.01.33-.62.57-.62.23.04.45.14.62.3.4.3.76.6.91-.3.1-.58-.29-.81-.36-1.28-.04-.3.67-.93.69-.88-.17-.34-.3-.83.12-1.11.15-.1.35-.08.48.04.14.09.26.17.39.05.07-.07-.04-.87,0-1.04.05-.36.32-.65.68-.72.38-.02.75.14,1,.44.07.07.56.87.56.87.65-.12.08-1.03.66-1.18.16-.04.3.07.44.18.21.17.38.35.53-.05.13-.33-.24-.87.45-.86.25,0,.81.74,1.02.91.1.08.2.15.3.22.2.13.44.21.68.23.61.03,1.7-.43,1.58-1.26-.04-.23-.24-.61,0-.81.12-.1.23-.07.36-.02.11.05.24.06.35.02,0-.33-.85-1.19.08-1.14.4.02.68.95,1.19.41-.23-.37-.26-.82-.1-1.22.34-.61,1.47-1.38,2.13-1.08.2.09.23.43.53.37.09-.02.28-.34.37-.42.29-.33.78-.37,1.13-.1.22.19.2.43.46.55.14.04.29.02.42-.06.14-.06.28-.12.39-.05.18.11.11.55.2.74.11.23.22.27.4.45.23-.09.43-.25.58-.45.1.03.2.07.3.12-.02.12.06.31.04.44.1.04.21.04.31,0,.08-.42.44-.53.81-.44.22.42-.08.8.16,1.28.11.02.29-.13.48-.28.3-.23.6-.47.63-.06.04.5-.96.29-.53,1.07.36-.04.53-.38.92-.08s.24,1.2.23,1.65c-.01.4.26.57.61.66.4.12.83-.03,1.06-.37.07-.1.09-.22.16-.31.11-.12.25-.22.4-.29.46-.22.46-.13.77.15.25.22.55.05.87-.11s.67-.35,1-.09.03.74.35.97c.18.08.39.08.58,0,.21-.09.45-.08.66.02.49.34.34,1.38.44,1.9.33-.17.81-.78,1.03-.14.08.24-.2.57-.09.78.15.28.42.12.65.22,1,.44-.34,1.24-.47,1.76-.13.56.52.91.13,1.46.16-.23.62.35.69.45.17.35.26.72.27,1.11-.16.03-.53.03-.66.17-.26.28.03.31,0,.64-.09.69-.72.42-1.05.74s-.06,1.01.32,1.19c.27.13.53-.09.74-.3s.37-.4.5-.31c.11.31.3.28.51.25.17-.06.36-.02.5.1.31.31.05.92.35,1.21.13.09.3.13.45.1.25,0,.48,0,.46.39,0,.2-.11.42,0,.61.09.14.34.21.38.39.05.23-.74.62-.85.77-.29.34-.31.82-.06,1.19.26.35.82.4,1.04.78.3.54-.17.34-.29.67-.19.52.5.46.77.6,0,.45-.39.53-.66.84.08.23.3.38.54.36.01.61-.35.85-.84,1.01-.64.22-.68.26-.48.9.1.32-.12.53-.33.73-.12.1-.2.08-.35.09s-.25.16-.37.23-.24.06-.36.11c-.35.16-.22.61-.34.91-.22.54-.76.1-1.07-.09-.42-.26-.61.13-.85.44-.31.41-.46-.15-.72-.32-.36-.23-.57.49-.81.67-.47.37-.58-.21-.58-.58,0-.12.04-.37-.12-.39s-.28.23-.42.28c-.33.11-.36-.65-.7-.7-.39-.06-.36.6-.62.76-.56.34-.83-.33-.95-.76-.14-.49,0-1.11-.33-1.53-.44-.54-1.34-.47-1.94-.41-.32,0-.63-.06-.92-.18-1.39-.35-2.86.16-3.73,1.3-.57.82-.89,1.8-.9,2.8-.03.5.06,1.01.24,1.48.09.4.24.78.44,1.13.38.46.87.81,1.42,1.02.47.2.97.35,1.47.45h85.31v.96h-99.42Zm5.67-9.3c.23.4,1.42,1.24,1.71.81.24-.78.17-1.63-.22-2.36-.6-.39-1.3-.62-2.01-.68-.05.78.14,1.56.52,2.23h0Zm4.94-2.43c-.06.58-.08,1.16-.07,1.74-.03.29-.16,1,.09,1.25.01.01.03.03.05.04.22.15.58-.45.68-.58.29-.35.5-.44.55-.94.06-.62-.29-.94-.62-1.37-.13-.17-.33-.43-.48-.43-.08,0-.15.08-.2.29h0Zm6.96,1.86c.17.35.63.38.92.59.24.18.72.32.89.55.33-.8-1.04-1.15-1.67-1.15-.05,0-.09,0-.14.01h0Zm-13.95-1.31c-.37.14-.2.87.06,1.34.07.15.17.27.3.37.35.19,1.05.27,1.01-.33-.02-.32-.83-1.4-1.28-1.4-.03,0-.06,0-.09.01Zm-5.5,1.72c.64,0,1.28-.16,1.83-.49-.03-.25-.28-.35-.58-.35-.69,0-1.7.51-1.25.83h0Zm3.15-2.24c.04.44.18.86.43,1.22.27.26.62.43.99.48.03,0,.05-.05.05-.12-.04-.39-.16-.78-.34-1.13-.25-.28-.59-.44-.96-.46-.05,0-.1,0-.15.01h0Zm13.17-.29c-.37.13-1.52.93-1.03,1.31s.81-.23.87-.61c.03-.25.11-.5.23-.72-.02,0-.04,0-.06.02h0Zm-1.87,1.02c.14-.07,1.11-1,.93-1.1-.05-.03-.11-.04-.17-.04-.44,0-.86.8-.76,1.15h0Zm2.9-1.3c-.31.3-1.05,1.16-.21,1.02.32,0,.59-.24.6-.57,0-.06,0-.11-.02-.17-.01-.17-.05-.34-.05-.52-.12.05-.23.13-.32.23h0Zm1.27-.74c-.27.12-.29.63-.31.89-.01.13.04.26.15.35.1.06.2,0,.28-.07l.05-.04c.25-.17.63-.29.59-.68-.02-.22-.39-.47-.64-.47-.04,0-.08,0-.11.02h0Zm-12.57-1.11c-.24.03-.42.25-.39.49.01.1.06.2.14.27.18.19.94.69,1.22.53s-.05-.4-.2-.64c-.18-.29-.31-.67-.67-.67-.03,0-.07,0-.1.01Zm8.8.23c-.29.04-.57.14-.81.3-.05.04-.09.1-.11.17-.05.3.28.26.48.28.27.03.54.01.8-.06.15-.04.41-.06.5-.21.05-.08.04-.5-.07-.51-.1-.01-.2-.02-.3-.02-.16,0-.33.02-.49.05h0Zm-5.99-1.98c-.12.21,0,.58.07.79.03.09.05.19.07.29.03.18.06.35.07.53.01.19.03.37.07.56.03.11.08.41.19.46.04-.06.07-.14.09-.21.01-.04.02-.08.03-.11.03-.09.06-.19.07-.29.05-.35.12-.68.19-1.03.09-.31.05-.64-.13-.92-.11-.13-.28-.21-.45-.22-.11,0-.22.05-.28.15h0Zm3.56.2c-.2.23-.17.79-.18,1.08-.02.43-.02.86-.03,1.29h.12c.32-.11.56-.39.63-.72.05-.43,0-.86-.15-1.26-.04-.1-.15-.45-.3-.45-.04,0-.08.02-.1.06h0Zm1.37-.26c-.08.27,0,.92.25,1.08.15.08.34.02.42-.14.26-.29.23-.74-.06-1-.1-.09-.23-.15-.36-.17h-.02c-.11,0-.21.14-.24.22h0Zm-5.98-.1c-.02.23.03.46.15.65.08.14.23.28.39.22.37-.13.16-.87-.09-1.02-.04-.02-.09-.03-.13-.03-.13,0-.25.06-.32.17h0Zm87.88,13.67c.02-.73.07-2.16.07-3.77v-3.48l-3.69-5.92c-.66-1.05-1.36-2.07-2.12-3.05h4.03c.31.68.67,1.33,1.07,1.96l2.46,4.05,2.39-3.93c.43-.67.82-1.37,1.16-2.08h3.76c-.73.95-1.53,2.18-2.3,3.41l-3.48,5.52v3.54c0,1.61.02,3.03.07,3.77h-3.41Zm-10.04-.09h-5.05c.05-1.3.09-3.17.09-4.24v-7.77c0-1.63-.05-3.51-.09-4.22h4.87c1.55,0,3.19-.07,3.89-.12v3.03c-.71-.07-2.35-.09-3.89-.09h-1.48v3.53h1.3c1.55,0,3.04-.05,3.76-.1v3.01c-.71-.05-2.21-.1-3.76-.1h-1.3v4.22h1.66c1.58,0,3.21-.02,3.89-.07v3.01c-.69-.05-2.33-.1-3.9-.1h0Zm-10.44,0h-5.65c.05-1.3.07-3.17.07-4.24v-7.75c0-1.63-.02-3.53-.07-4.24h3.46c-.05.71-.09,2.61-.09,4.24v9.1h2.28c1.58,0,3.19-.02,3.87-.07v3.06c-.69-.05-2.31-.1-3.88-.1h0Zm-11.05,0h-5.65c.05-1.3.07-3.17.07-4.24v-7.75c0-1.63-.02-3.53-.07-4.24h3.46c-.05.71-.09,2.61-.09,4.24v9.1h2.28c1.58,0,3.19-.02,3.87-.07v3.06c-.69-.05-2.31-.1-3.88-.1h0Zm-11.43.09c-.18-.57-.48-1.3-.77-2.04l-.7-1.73h-5.42l-.71,1.68c-.34.83-.57,1.44-.77,2.08h-3.48c.65-1.17,1.23-2.37,1.75-3.6l5.64-12.91h.91l5.8,12.91c.62,1.35,1.3,2.63,1.84,3.6h-4.1Zm-5.81-6.54h3.23l-1.62-4.05-1.61,4.05Zm-9.4,6.54l-5.76-13.01c-.52-1.22-1.09-2.41-1.73-3.58h3.73c.26.91.59,1.81.98,2.68l3.19,7.58,3.12-7.56c.36-.92.82-1.94,1.05-2.7h3.44c-.64,1.16-1.21,2.36-1.73,3.58l-5.74,13h-.55Zm-49.72,0c-1.49-1.95-2.81-4.02-3.94-6.2-.14.02-.29.03-.43.02h-.75v2c0,1.61.02,3.46.09,4.19h-3.47c.05-.73.09-2.58.09-4.19v-7.8c0-1.61-.05-3.53-.09-4.24h4.64c3.73,0,5.78,2.13,5.78,5.07.14,2.01-1.14,3.84-3.07,4.41,1.78,2.08,3.48,4.88,5.44,6.75h-4.3Zm-5.12-8.62h1.25c1.31.07,2.43-.93,2.5-2.23,0-.07,0-.14,0-.21.03-1.34-1.03-2.45-2.38-2.48-.09,0-.18,0-.26,0h-1.12v4.91Zm-9.1,8.53h-5.05c.05-1.3.09-3.17.09-4.24v-7.77c0-1.63-.05-3.51-.09-4.22h4.87c1.55,0,3.19-.07,3.89-.12v3.03c-.7-.07-2.34-.09-3.89-.09h-1.48v3.53h1.3c1.55,0,3.05-.05,3.76-.1v3.01c-.71-.05-2.21-.1-3.76-.1h-1.3v4.22h1.66c1.58,0,3.21-.02,3.89-.07v3.01c-.69-.05-2.33-.1-3.9-.1h0Zm-19.67.09c.07-.73.11-2.63.11-4.24v-7.75c0-1.61-.05-3.53-.11-4.24h5.44c4.48.16,7.98,3.92,7.82,8.4-.15,4.25-3.57,7.67-7.82,7.82h-5.44Zm3.42-2.79h1.78c2.94-.31,5.06-2.95,4.75-5.88-.27-2.51-2.26-4.49-4.77-4.75h-1.75v10.63Zm-5.56,2.79c-.68-.81-1.25-1.44-1.98-2.21l-7.28-7.82-.02,6.32c0,1.23.05,2.75.09,3.41h-3.3c.05-.66.07-2.18.07-3.43v-8.48c0-1.42-.02-3.36-.07-4.64h.68c1,1.11,1.58,1.68,2.3,2.42l6.97,7.51v-5.35c0-1.35-.05-3.24-.09-4.24h3.32c-.05,1.04-.11,2.94-.11,4.24v8.62c0,.99.02,2.27.11,3.65h-.69Zm-29.96-8.41c.06-4.58,3.82-8.24,8.41-8.18,4.58.06,8.24,3.82,8.18,8.41-.06,4.54-3.76,8.19-8.3,8.18-4.57,0-8.28-3.69-8.29-8.27,0-.05,0-.09,0-.14h0Zm3.32,0c.28,2.75,2.74,4.76,5.49,4.48,2.75-.28,4.76-2.74,4.48-5.49-.26-2.57-2.43-4.51-5.01-4.5-2.88.14-5.1,2.58-4.97,5.46,0,.02,0,.04,0,.06h0Zm-10.29,8.41l-3.16-6.49-3.16,6.49h-.43L1.82,18.32c-.55-1.13-1.16-2.23-1.82-3.29h3.92c.34.9.73,1.79,1.16,2.65l3.96,8.34,1.66-3.72-1.96-3.98c-.52-1.15-1.13-2.25-1.84-3.29h3.57c.35,1,.78,1.98,1.27,2.91l.46.97.43-1c.64-1.44,1-2.3,1.23-2.89h3.21c-.64,1.07-1.23,2.16-1.75,3.29l-1.73,3.55,1.82,3.91,3.41-7.56c.53-1.03.98-2.1,1.34-3.2h3.42c-.55,1-.96,1.75-1.73,3.36l-6.35,13.14h-.29Z"/>
  </g>
</svg>